<?xml version="1.0" encoding="utf-8"?>
<!-- Generator: Adobe Illustrator 28.0.0, SVG Export Plug-In . SVG Version: 6.00 Build 0)  -->
<svg version="1.1" xmlns="http://www.w3.org/2000/svg" xmlns:xlink="http://www.w3.org/1999/xlink" x="0px" y="0px"
	 viewBox="0 0 500 500" style="enable-background:new 0 0 500 500;" xml:space="preserve">
<style type="text/css">
	.st0{display:none;}
	.st1{display:inline;fill:#FFFFFF;}
	.st2{fill:#5EBEEF;}
	.st3{fill:#88AE2E;}
	.st4{opacity:0.3;fill:#FFFFFF;}
	.st5{opacity:0.3;fill:#19A7F6;}
	.st6{fill:#B77D4E;}
	.st7{fill:#A5693D;}
	.st8{fill:#E2AC71;}
	.st9{fill:#FE645F;}
	.st10{fill:#E84949;}
	.st11{fill:#FF7B5C;}
	.st12{fill:#FCD702;}
	.st13{fill:#F2A803;}
	.st14{fill:#FFDF22;}
	.st15{fill:#FFB9A4;}
	.st16{fill:#3A2937;}
	.st17{fill:#D1D1D1;}
	.st18{fill:#EFEFEF;}
	.st19{fill:#FFC9B6;}
	.st20{fill:#493644;}
	.st21{fill:#C47B42;}
	.st22{fill:#A8572A;}
	.st23{fill:#B56835;}
</style>
<g id="BACKGROUND" class="st0">
	<rect class="st1" width="500" height="500"/>
</g>
<g id="OBJECT">
</g>
<g id="DESIGNED_BY_FREEPIK">
	<g>
		<g>
			<g>
				<path class="st2" d="M411.5,271.5c-6.1-30.3-21.1-57.3-42.1-78.4c-22.3-22.3-51.4-37.8-83.9-43.2c-8.3-1.4-16.8-2.1-25.5-2.1
					c-75.5,0-138.4,54.2-151.9,125.8c-1.1,5.9-1.9,11.9-2.3,18c-0.3,3.6-0.4,7.2-0.4,10.9c0,54.5,28.3,102.4,70.9,130
					c24.1,15.6,52.8,24.6,83.7,24.6c85.4,0,154.6-69.2,154.6-154.6C414.6,291.8,413.5,281.4,411.5,271.5z"/>
				<path class="st3" d="M408.1,257.7c-4.8-13.7-19.4-51.1-51.1-75.8c-13-1.7-19,6-34.9,24.7c-13.1,15.4-23.9,23.1-43.9,23.7
					c-7.2,0.2-30.2-16.9-40.6-20.7c-14.2-5.3-23.1,4-32.9,12.3c-9.2,7.8-19.6,14-20.2,29.7c-0.2,5.4,5.8,8.9,7.3,16.1
					c2.4,11.5,1.7,26.9,7.7,33.9c16.2,18.8,30.9,33.6,45.5,62.9c8.6,17.5,22.3,10.5,42.8,10.6c14.3,0.1,39.8,13.6,52.6,3.7
					c11.6-8.9,14.4-29.6,22.3-38.6c7.4-8.4,15.5-21,16.1-37.2C379.7,280.1,390.8,272.5,408.1,257.7z"/>
				<path class="st3" d="M194.1,382.5c0-8.6-4.5-10.2,5.5-18.9c6.3-5.5,7.6-23.4-9.5-30.5c-7.9-3.3-23.1-8.2-30.8-9.6
					c-14.2-2.5-18.2-10.7-30.8-14.7c-8.5-2.7-14.9-3.5-23.1,2.1c7.4,86,64,121.2,99.6,134.9c0.8,0.2,5.2-20.1,2.5-28
					C199.6,394.7,194.1,402.9,194.1,382.5z"/>
				<path class="st3" d="M282.7,402.1c-11.8-1.3-34.2-19.6-43.3-6.8c-8.1,11.4,15.1,32.9,24.7,36.7c9.9,3.9,20.7,2.1,30.2-2
					c7.9-3.5,21.9-9.6,24.2-19.1C321.7,397.7,295.6,403.6,282.7,402.1z"/>
				<path class="st3" d="M189.8,164.6c-1.2,12.9-3.9,39.9-13.9,41.7c-19,3.4-21.2-17.1-21.2-17.1S171.3,173.4,189.8,164.6z"/>
				<g>
					<path class="st4" d="M297.3,317.1c-28.6,65-91.5,100.3-140.6,78.7C107.6,374.2,91,304,119.5,239c28.6-65,91.5-100.3,140.6-78.7
						C309.3,181.9,325.9,252.1,297.3,317.1z"/>
					<path class="st4" d="M255.4,287.4c-20.1,45.8-64.5,70.7-99.1,55.5c-34.6-15.2-46.3-64.7-26.2-110.6
						c20.1-45.8,64.5-70.7,99.2-55.5C263.8,192.1,275.5,241.6,255.4,287.4z"/>
					<path class="st4" d="M224.7,260.7c-13.2,30.1-42.3,46.4-65,36.4c-22.7-10-30.4-42.4-17.2-72.5c13.2-30.1,42.3-46.4,65-36.4
						C230.2,198.2,237.9,230.6,224.7,260.7z"/>
				</g>
				<path class="st5" d="M411.5,271.5c-6.1-30.3-21.1-57.3-42.1-78.4c-1-1-2.1-2-3.2-3c5.8,12,10.1,24.9,12.7,38.4
					c6,30.9,3.5,64.9-8.3,97.8c-3.9,10.9-8.8,21.6-14.7,32.1c-30.3,53.5-80.5,87.2-131.6,94.4c11.5,2.7,23.4,4.2,35.7,4.2
					c85.4,0,154.6-69.2,154.6-154.6C414.6,291.8,413.5,281.4,411.5,271.5z"/>
			</g>
			<g>
				<path class="st6" d="M258.7,170.9v133.1l131.3,22.8c0,0-8.6-60.1-51.9-108C292.5,168.1,258.7,170.9,258.7,170.9z"/>
				<path class="st7" d="M258.7,170.9c0,0-46.2,10.9-73,68.1c-28.8,61.6-23.3,105-23.3,105l96.3-40.1V170.9z"/>
				<path class="st8" d="M162.3,344L162.3,344c0,0,47.3,33.5,134,26.7c74.2-5.9,93.6-44,93.6-44l0,0l-131.3-22.8L162.3,344z"/>
			</g>
			<g>
				<path class="st9" d="M258.8,204.5v99.4l98,17c0,0-6.5-44.9-38.7-80.7C284.1,202.4,258.8,204.5,258.8,204.5z"/>
				<path class="st10" d="M258.8,204.5c0,0-34.5,8.1-54.5,50.9c-21.5,46-17.4,78.4-17.4,78.4l71.9-29.9V204.5z"/>
				<path class="st11" d="M186.8,333.8L186.8,333.8c0,0,35.4,25,100.1,19.9c55.4-4.4,69.9-32.8,69.9-32.8l0,0l-98-17L186.8,333.8z"
					/>
			</g>
			<g>
				<path class="st12" d="M258.7,247.8v55.4l54.7,9.5c0,0-3.6-25-21.6-45C272.8,246.6,258.7,247.8,258.7,247.8z"/>
				<path class="st13" d="M258.7,247.8c0,0-19.2,4.5-30.4,28.4c-12,25.7-9.7,43.8-9.7,43.8l40.1-16.7V247.8z"/>
				<path class="st14" d="M218.5,319.9L218.5,319.9c0,0,19.7,14,55.8,11.1c30.9-2.5,39-18.3,39-18.3l0,0l-54.7-9.5L218.5,319.9z"/>
			</g>
		</g>
		<g>
			<path class="st15" d="M159.3,89.4c0,0-10.8,8-14.8,12.7c-4,4.7-3.9,15.6,2,17.7c5.8,2.1,30.4-8.7,33-16.4
				C182,95.7,159.3,89.4,159.3,89.4z"/>
			<g>
				<g>
					<path class="st16" d="M175.7,241.4c0,0-5,3.6-13.4,1.2c-8.4-2.4-14.4-6.6-14.4-6.6s-0.6,13.4-0.7,18.8
						c-0.1,5.4,0.4,11.6-1.2,15.7c-1.6,4.1-7,10.4-10.8,14.4c-3.4,3.6-3.8,9.9-0.1,13.9c2.7,2.9,11.6,6.1,15.9,1.3
						c4.3-4.8,6.4-9.7,7.6-14.4c3-2.2,3-2.2,4.1-3.5c3.1-3.6,1-8.1,1.1-11.1C163.8,268.1,172.7,253.4,175.7,241.4z"/>
					<path class="st17" d="M177.1,106.7c-9.4-2-16.7-8.6-22.2-16.3c1.5-1.9,8.9-9.2,10.4-10.2c4.1-15.4,13.6-17.1,18.3-14.8
						c8.8,4.3,10.4,14,6.6,22.2C188.3,91.8,179.8,102.9,177.1,106.7z"/>
					<path class="st10" d="M206.9,158.1c0.4-0.7,0.4-1.7-0.2-2.4c-4.2-4.3-16-18.1-16.5-18c-22.2-3.6-62.2,31.4-65.3,35.2
						c5.5,7.1,10.2,17.9,16.7,23C156.1,196,196.3,175.4,206.9,158.1z"/>
					<path class="st9" d="M177.4,218.4c10.6-9.6,17.7-12.5,22.1-24.4c9.3-4.3,18.5-16.4,16.8-34c-4.8-6.8-14.1-17.7-23.6-17.4
						c-12.9,8.1-18.4,14.6-18.2,22.4c-9.2,9-20.4,26.8-22.1,40.1C151.9,208.8,175.4,220.3,177.4,218.4z"/>
					<path class="st9" d="M153.8,198.7c-5.2,17.2-11.2,61.9-7,67.8c5.3,7.6,12.8,4.5,17.9,2.7c1.7-4.5,8.3-15.9,11.6-27.7
						c3.2-11.6,3.6-23.6,2.7-30.1C170.1,213.5,161.5,202.4,153.8,198.7z"/>
					<path class="st10" d="M220.9,143.2l1.5,9.3c0,0-8.4,6.2-19.6,7.7c-11.2,1.5-19.9-1.2-24.7-5.1c-11.6-9.3-7.9-18.1-7.9-18.1
						L220.9,143.2z"/>
					<path class="st18" d="M170.1,135.7c7.4,8,14.6,11.2,27.4,11.1c8.8,0,16.1-2.5,23.6-6.2c0.3-5.3,0.2-11.3,1.5-15.7
						c1.7-5.5,5-34.9,4.2-35.9c-6.7-7.4-12.6-12.1-22.6-15c-2.4-1.3-15.3-6.7-19.1-6.5c-7.8,0.4-13.6,7.7-15.2,14
						c-2.6,10.2-1.3,19.4,2.1,31.9C171,118.7,169.8,128.5,170.1,135.7z"/>
					<path class="st17" d="M214.8,138.1c0,0-4.2,2.3-9.8,0.8c-5.6-1.5-8.7-4.5-8.7-4.5s7.1,2.3,10.2,2.9
						C209.8,137.9,214.8,138.1,214.8,138.1z"/>
					<path class="st17" d="M210.6,76.3c0,0-0.8,6-7.8,8.4c-10.6,3.7-18.1-1.4-20.1-7c-2-5.6,4.5-10.2,4.5-10.2S200.5,69,210.6,76.3z
						"/>
					<path class="st9" d="M222.6,138.5l2,5c0,0-4.3,3.7-15.9,8.1c-11.7,4.4-24.6,1.9-30.4-3.2c-5.7-5.1-9.3-8.3-9.7-12.9
						c-0.4-5.3-0.2-7.6,0.7-14.9c0.9-7.3,2.6-26.8,2.6-26.8s5.7,4,13.1,6c9.5,2.5,14.7,2.8,14.7,2.8s-0.4,18.1,1.7,26
						c1.5,5.7,2.7,8,8.9,11.1C216.5,142.5,222.6,138.5,222.6,138.5z"/>
					<path class="st10" d="M194.5,107.4c0,0-4.9-0.2-11.9-2.2c-4.7-1.4-7.9-3-7.9-3s-1.4,5.9-1.6,11.9c-0.1,3.8,4,7.3,8.7,8.5
						c4.3,1.1,11,0.1,11.5-4.4C194.2,110.7,194.5,107.4,194.5,107.4z"/>
					<path class="st9" d="M213.7,77.9c0,0-5.1,2.7-9.3,11.5c-3.7,7.7-4.8,19.1-4.8,19.1l-4.6-1.4c0,0,0-11.4,5.2-19.7
						c5.9-9.5,7.7-11.8,11.8-11.8C214.4,75.6,213.7,77.9,213.7,77.9z"/>
					<path class="st9" d="M190.4,68.6c0,0-5.1,2.7-9.3,11.5c-3.7,7.7-4.8,19.1-4.8,19.1l-4.6-1.4c0,0,0-11.4,5.2-19.7
						c5.9-9.5,7.7-11.8,11.8-11.8C191,66.2,190.4,68.6,190.4,68.6z"/>
					<path class="st15" d="M187.1,64.6c2.2,0.5,6,1.2,8.2,0.7c3-0.6,6.3-2,8.7-4.2c-0.4,1.1,0.6,9,2.6,14c1.4,3.6-6.2,7.2-12.9,6.5
						c-4.7-0.5-8.8-4.6-8.8-6.3C186.4,70.3,186.6,67,187.1,64.6z"/>
					<path class="st19" d="M179.2,50.1c0.7-4.3,2.2-9.5,5.8-12.2c3.6-2.6,9.1-1.6,13.4-1.5c5.4,0.1,10.3,9,8.2,17.2
						c-1.9,7.6-8.5,18.9-17.3,19.6c-4.5,0.3-7.5-3.4-9-7.8C178.5,60,178.7,53.6,179.2,50.1z"/>
					<path class="st10" d="M211.7,145c0,0-5.1,3.1-9.6,4.2c-4.6,1.1-8.3,0-8.3,0s2.8-0.3,8.3-1.9C207.6,145.8,211.7,145,211.7,145z"
						/>
					<path class="st10" d="M178.4,211c0,2.8-2,2.5-4.9,4.1c-2.9,1.6-5,1.8-5,1.8s0.3-4,4.1-4.9C176.4,211.2,178.4,211,178.4,211z"/>
					<path class="st10" d="M176.6,217.3c0,0-1.3,4.3-3.4,5.6c-2.1,1.2-4.2,2.3-4.2,2.3s-0.7-2.5,2.3-4.5
						C174.3,218.6,176.6,217.3,176.6,217.3z"/>
				</g>
				<path class="st19" d="M212.2,107.9c0,0-0.5,13.9,0,20.7c0.5,6.8,1.2,14.5,1.2,14.5s-22.1,14.5-26,15.1
					c-3.9,0.6-9.8-5.3-12.2-3.2c-2.4,2.1,1.4,4.9,4.1,5.6c2.7,0.6,5.2,4.4,1.5,9.9c-3.7,5.5-6.7,12.3,0.3,11.3
					c7-1,15.6-15.9,15.6-15.9s22.5-7.3,27.4-11.6c4.9-4.3,3.2-5.2,4.6-14.4c1.3-9.2,2.5-27.3,2.5-27.3L212.2,107.9z"/>
				<path class="st17" d="M218.9,82.8c-8.2-0.5-10.7,14.8-11,20.7c-0.2,3.9,0.4,15.8,0.4,15.8s16.7,9.5,25.2,1.9
					c1.2-7.9-0.6-16.8-2.7-24.5C228.7,88.9,225.5,83.2,218.9,82.8z"/>
			</g>
			<path class="st10" d="M179.1,38.7c-0.1,0-4,1.9-7.3,1.7c-4.3-0.3-4.8-4.4-4.8-4.4s5.3-1.5,8.5-1.1
				C178.8,35.4,179.1,38.7,179.1,38.7z"/>
			<path class="st20" d="M208.4,53.7c0,0,0.5,0.3-0.9,3.5c-1.4,3.2-4.3,7.6-4.3,7.6s-2-1.4-1.8-6c0.2-4.6,1.8-7,1.8-7
				s-4.7,0.9-9.7-3c-5.1-3.9-5.7-6.7-5.7-6.7s-3.9,5.7-9.3,5.4c-5.3-0.3-10.7-8-5.4-9.8c5.3-1.8,17.5-0.1,17.5-0.1
				S208.7,47.6,208.4,53.7z"/>
			<path class="st9" d="M208.5,55.2c-4.1-9.1-19.1-19.6-30.2-18.9c0.1-0.1,0.1-0.2,0.2-0.3c5.9-9.3,12.2-11.3,24.8-6
				c12.6,5.4,9.3,16.3,8.6,17.6C211.6,48,210.3,52.9,208.5,55.2z"/>
			<path class="st10" d="M201.6,46.3c0,0-3.6-6.3-12.4-10.3c-11-5.1-22.2,0-22.2,0s8.1,1.3,11.3,5c3.3,3.6,5.2,6.5,11.7,6.6
				C197.8,47.8,201.6,46.3,201.6,46.3z"/>
			<path class="st16" d="M112.1,243.9c0,0-2.2,5-7.7,6c-5.5,1-13,3-15.4,8.3c-2.4,5.3-3.7,7.3,4.2,10.2c7.9,2.9,17.9-2.9,17.9-2.9
				s5.5,1.6,10,0.2c4.4-1.5,4.5-4.2,4.9-11.2c0.4-7-0.7-10.2-0.7-10.2L112.1,243.9z"/>
			<path class="st10" d="M128.8,169.1c0,0-8.3,6.9-10.5,9.6c-2.1,2.8-4.3,19.1-5.8,31.3c-1.5,12.2-4.1,37-4.1,37s4.3,4.3,10.2,5.4
				c5.9,1.1,10.2,0,10.2,0s18-47.1,15.4-60.2C141.7,179.2,128.8,169.1,128.8,169.1z"/>
			<polygon class="st21" points="162.8,98.5 127.8,78.3 139.4,129.8 174.4,150 			"/>
			<polygon class="st22" points="162.8,98.5 165.2,96.9 176.9,148.4 174.4,150 			"/>
			<polygon class="st23" points="127.8,78.3 130.2,76.7 165.2,96.9 162.8,98.5 			"/>
			<path class="st19" d="M130.9,94.4c0.7-2.7,3.7-0.6,7.1,1.7c3.4,2.3,3.9,3.3,2.1,3.7c-1.7,0.4-4.1-1.1-4.1-1.1s3.4,1.6,4,3.7
				c0.6,2.1-3.4,1.6-3.4,1.6s4.3,1.9,3.3,3.2c-1,1.3-3.9,0-3.9,0s4,3.5,2.1,3.8c-2,0.3-6.8-2.4-7.1-8.6
				C130.6,96.3,130.9,94.4,130.9,94.4z"/>
		</g>
	</g>
</g>
</svg>
